<svg width="160" height="48" viewBox="0 0 160 48" fill="none" xmlns="http://www.w3.org/2000/svg">
<rect width="160" height="48" rx="4" fill="#673EE6"/>
<path d="M24 10.6667C22.249 10.6667 20.5152 11.0115 18.8976 11.6816C17.2799 12.3517 15.81 13.3338 14.5719 14.5719C12.0714 17.0724 10.6667 20.4638 10.6667 24C10.6667 29.8933 14.4933 34.8933 19.7867 36.6667C20.4533 36.7733 20.6667 36.36 20.6667 36V33.7467C16.9733 34.5467 16.1867 31.96 16.1867 31.96C15.5733 30.4133 14.7067 30 14.7067 30C13.4933 29.1733 14.8 29.2 14.8 29.2C16.1333 29.2933 16.84 30.5733 16.84 30.5733C18 32.6 19.96 32 20.72 31.68C20.84 30.8133 21.1867 30.2267 21.56 29.8933C18.6 29.56 15.4933 28.4133 15.4933 23.3333C15.4933 21.8533 16 20.6667 16.8667 19.72C16.7333 19.3867 16.2667 18 17 16.2C17 16.2 18.12 15.84 20.6667 17.56C21.72 17.2667 22.8667 17.12 24 17.12C25.1333 17.12 26.28 17.2667 27.3333 17.56C29.88 15.84 31 16.2 31 16.2C31.7333 18 31.2667 19.3867 31.1333 19.72C32 20.6667 32.5067 21.8533 32.5067 23.3333C32.5067 28.4267 29.3867 29.5467 26.4133 29.88C26.8933 30.2933 27.3333 31.1067 27.3333 32.3467V36C27.3333 36.36 27.5467 36.7867 28.2267 36.6667C33.52 34.88 37.3333 29.8933 37.3333 24C37.3333 22.249 36.9885 20.5152 36.3184 18.8976C35.6483 17.2799 34.6662 15.81 33.4281 14.5719C32.19 13.3338 30.7201 12.3517 29.1025 11.6816C27.4848 11.0115 25.751 10.6667 24 10.6667V10.6667Z" fill="white"/>
<path d="M55.55 11.1195C55.39 10.8262 55.17 10.6028 54.89 10.4495C54.61 10.2962 54.2833 10.2195 53.91 10.2195C53.4967 10.2195 53.13 10.3128 52.81 10.4995C52.49 10.6862 52.24 10.9528 52.06 11.2995C51.88 11.6462 51.79 12.0462 51.79 12.4995C51.79 12.9662 51.88 13.3728 52.06 13.7195C52.2467 14.0662 52.5033 14.3328 52.83 14.5195C53.1567 14.7062 53.5367 14.7995 53.97 14.7995C54.5033 14.7995 54.94 14.6595 55.28 14.3795C55.62 14.0928 55.8433 13.6962 55.95 13.1895H53.55V12.1195H57.33V13.3395C57.2367 13.8262 57.0367 14.2762 56.73 14.6895C56.4233 15.1028 56.0267 15.4362 55.54 15.6895C55.06 15.9362 54.52 16.0595 53.92 16.0595C53.2467 16.0595 52.6367 15.9095 52.09 15.6095C51.55 15.3028 51.1233 14.8795 50.81 14.3395C50.5033 13.7995 50.35 13.1862 50.35 12.4995C50.35 11.8128 50.5033 11.1995 50.81 10.6595C51.1233 10.1128 51.55 9.6895 52.09 9.3895C52.6367 9.08283 53.2433 8.9295 53.91 8.9295C54.6967 8.9295 55.38 9.12283 55.96 9.5095C56.54 9.8895 56.94 10.4262 57.16 11.1195H55.55ZM59.7658 10.1495V11.8995H62.1158V13.0095H59.7658V14.8595H62.4158V15.9995H58.3658V9.0095H62.4158V10.1495H59.7658ZM68.438 9.0195V10.1495H66.578V15.9995H65.178V10.1495H63.318V9.0195H68.438ZM73.2423 9.0195V15.9995H71.8423V9.0195H73.2423ZM79.3755 9.0195V10.1495H77.5155V15.9995H76.1155V10.1495H74.2555V9.0195H79.3755ZM86.0198 16.0695C85.3665 16.0695 84.7665 15.9162 84.2198 15.6095C83.6732 15.3028 83.2398 14.8795 82.9198 14.3395C82.5998 13.7928 82.4398 13.1762 82.4398 12.4895C82.4398 11.8095 82.5998 11.1995 82.9198 10.6595C83.2398 10.1128 83.6732 9.68616 84.2198 9.3795C84.7665 9.07283 85.3665 8.9195 86.0198 8.9195C86.6798 8.9195 87.2798 9.07283 87.8198 9.3795C88.3665 9.68616 88.7965 10.1128 89.1098 10.6595C89.4298 11.1995 89.5898 11.8095 89.5898 12.4895C89.5898 13.1762 89.4298 13.7928 89.1098 14.3395C88.7965 14.8795 88.3665 15.3028 87.8198 15.6095C87.2732 15.9162 86.6732 16.0695 86.0198 16.0695ZM86.0198 14.8195C86.4398 14.8195 86.8098 14.7262 87.1298 14.5395C87.4498 14.3462 87.6998 14.0728 87.8798 13.7195C88.0598 13.3662 88.1498 12.9562 88.1498 12.4895C88.1498 12.0228 88.0598 11.6162 87.8798 11.2695C87.6998 10.9162 87.4498 10.6462 87.1298 10.4595C86.8098 10.2728 86.4398 10.1795 86.0198 10.1795C85.5998 10.1795 85.2265 10.2728 84.8998 10.4595C84.5798 10.6462 84.3298 10.9162 84.1498 11.2695C83.9698 11.6162 83.8798 12.0228 83.8798 12.4895C83.8798 12.9562 83.9698 13.3662 84.1498 13.7195C84.3298 14.0728 84.5798 14.3462 84.8998 14.5395C85.2265 14.7262 85.5998 14.8195 86.0198 14.8195ZM96.6014 15.9995H95.2014L92.0314 11.2095V15.9995H90.6314V9.0095H92.0314L95.2014 13.8095V9.0095H96.6014V15.9995Z" fill="white"/>
<path d="M63.872 25.1195C63.44 24.2875 62.84 23.6635 62.072 23.2475C61.304 22.8155 60.416 22.5995 59.408 22.5995C58.304 22.5995 57.32 22.8475 56.456 23.3435C55.592 23.8395 54.912 24.5435 54.416 25.4555C53.936 26.3675 53.696 27.4235 53.696 28.6235C53.696 29.8235 53.936 30.8875 54.416 31.8155C54.912 32.7275 55.592 33.4315 56.456 33.9275C57.32 34.4235 58.304 34.6715 59.408 34.6715C60.896 34.6715 62.104 34.2555 63.032 33.4235C63.96 32.5915 64.528 31.4635 64.736 30.0395H58.472V27.8555H67.664V29.9915C67.488 31.2875 67.024 32.4795 66.272 33.5675C65.536 34.6555 64.568 35.5275 63.368 36.1835C62.184 36.8235 60.864 37.1435 59.408 37.1435C57.84 37.1435 56.408 36.7835 55.112 36.0635C53.816 35.3275 52.784 34.3115 52.016 33.0155C51.264 31.7195 50.888 30.2555 50.888 28.6235C50.888 26.9915 51.264 25.5275 52.016 24.2315C52.784 22.9355 53.816 21.9275 55.112 21.2075C56.424 20.4715 57.856 20.1035 59.408 20.1035C61.184 20.1035 62.76 20.5435 64.136 21.4235C65.528 22.2875 66.536 23.5195 67.16 25.1195H63.872ZM71.7545 22.0235C71.2585 22.0235 70.8425 21.8555 70.5065 21.5195C70.1705 21.1835 70.0025 20.7675 70.0025 20.2715C70.0025 19.7755 70.1705 19.3595 70.5065 19.0235C70.8425 18.6875 71.2585 18.5195 71.7545 18.5195C72.2345 18.5195 72.6425 18.6875 72.9785 19.0235C73.3145 19.3595 73.4825 19.7755 73.4825 20.2715C73.4825 20.7675 73.3145 21.1835 72.9785 21.5195C72.6425 21.8555 72.2345 22.0235 71.7545 22.0235ZM73.0985 23.7755V36.9995H70.3625V23.7755H73.0985ZM79.8826 26.0075V33.3275C79.8826 33.8235 79.9946 34.1835 80.2186 34.4075C80.4586 34.6155 80.8586 34.7195 81.4186 34.7195H83.0986V36.9995H80.9386C79.7066 36.9995 78.7626 36.7115 78.1066 36.1355C77.4506 35.5595 77.1226 34.6235 77.1226 33.3275V26.0075H75.5626V23.7755H77.1226V20.4875H79.8826V23.7755H83.0986V26.0075H79.8826ZM98.9403 20.3195V36.9995H96.2043V29.7035H88.3563V36.9995H85.6203V20.3195H88.3563V27.4715H96.2043V20.3195H98.9403ZM114.518 23.7755V36.9995H111.782V35.4395C111.35 35.9835 110.782 36.4155 110.078 36.7355C109.39 37.0395 108.654 37.1915 107.87 37.1915C106.83 37.1915 105.894 36.9755 105.062 36.5435C104.246 36.1115 103.598 35.4715 103.118 34.6235C102.654 33.7755 102.422 32.7515 102.422 31.5515V23.7755H105.134V31.1435C105.134 32.3275 105.43 33.2395 106.022 33.8795C106.614 34.5035 107.422 34.8155 108.446 34.8155C109.47 34.8155 110.278 34.5035 110.87 33.8795C111.478 33.2395 111.782 32.3275 111.782 31.1435V23.7755H114.518ZM120.864 25.7435C121.328 25.1035 121.96 24.5835 122.76 24.1835C123.576 23.7675 124.48 23.5595 125.472 23.5595C126.64 23.5595 127.696 23.8395 128.64 24.3995C129.584 24.9595 130.328 25.7595 130.872 26.7995C131.416 27.8235 131.688 28.9995 131.688 30.3275C131.688 31.6555 131.416 32.8475 130.872 33.9035C130.328 34.9435 129.576 35.7595 128.616 36.3515C127.672 36.9275 126.624 37.2155 125.472 37.2155C124.448 37.2155 123.536 37.0155 122.736 36.6155C121.952 36.2155 121.328 35.7035 120.864 35.0795V36.9995H118.128V19.2395H120.864V25.7435ZM128.904 30.3275C128.904 29.4155 128.712 28.6315 128.328 27.9755C127.96 27.3035 127.464 26.7995 126.84 26.4635C126.232 26.1115 125.576 25.9355 124.872 25.9355C124.184 25.9355 123.528 26.1115 122.904 26.4635C122.296 26.8155 121.8 27.3275 121.416 27.9995C121.048 28.6715 120.864 29.4635 120.864 30.3755C120.864 31.2875 121.048 32.0875 121.416 32.7755C121.8 33.4475 122.296 33.9595 122.904 34.3115C123.528 34.6635 124.184 34.8395 124.872 34.8395C125.576 34.8395 126.232 34.6635 126.84 34.3115C127.464 33.9435 127.96 33.4155 128.328 32.7275C128.712 32.0395 128.904 31.2395 128.904 30.3275Z" fill="white"/>
<rect x="50" y="40.9995" width="108" height="0.001" fill="white"/>
</svg>
