<svg width="48" height="48" viewBox="0 0 48 48" fill="none" xmlns="http://www.w3.org/2000/svg">
<rect width="48" height="48" rx="4" fill="#1D9BF0"/>
<path d="M34.46 18C33.69 18.35 32.86 18.58 32 18.69C32.88 18.16 33.56 17.32 33.88 16.31C33.05 16.81 32.13 17.16 31.16 17.36C30.37 16.5 29.26 16 28 16C25.65 16 23.73 17.92 23.73 20.29C23.73 20.63 23.77 20.96 23.84 21.27C20.28 21.09 17.11 19.38 15 16.79C14.63 17.42 14.42 18.16 14.42 18.94C14.42 20.43 15.17 21.75 16.33 22.5C15.62 22.5 14.96 22.3 14.38 22V22.03C14.38 24.11 15.86 25.85 17.82 26.24C17.1907 26.4122 16.5301 26.4362 15.89 26.31C16.1616 27.1625 16.6935 27.9084 17.411 28.4429C18.1285 28.9775 18.9954 29.2737 19.89 29.29C18.3736 30.4904 16.494 31.1393 14.56 31.13C14.22 31.13 13.88 31.11 13.54 31.07C15.44 32.29 17.7 33 20.12 33C28 33 32.33 26.46 32.33 20.79C32.33 20.6 32.33 20.42 32.32 20.23C33.16 19.63 33.88 18.87 34.46 18V18Z" fill="white"/>
</svg>
