<svg width="48" height="48" viewBox="0 0 48 48" fill="none" xmlns="http://www.w3.org/2000/svg">
<rect width="48" height="48" rx="4" fill="#5562EA"/>
<path d="M33.6933 15.1066C31.92 14.28 30 13.68 28 13.3333C27.9825 13.3328 27.965 13.336 27.9489 13.343C27.9328 13.3499 27.9183 13.3602 27.9067 13.3733C27.6667 13.8133 27.3867 14.3866 27.2 14.8266C25.0787 14.5066 22.9213 14.5066 20.8 14.8266C20.6133 14.3733 20.3333 13.8133 20.08 13.3733C20.0667 13.3466 20.0267 13.3333 19.9867 13.3333C17.9867 13.68 16.08 14.28 14.2933 15.1066C14.28 15.1066 14.2667 15.12 14.2533 15.1333C10.6267 20.56 9.62666 25.84 10.12 31.0666C10.12 31.0933 10.1333 31.12 10.16 31.1333C12.56 32.8933 14.8667 33.96 17.1467 34.6666C17.1867 34.68 17.2267 34.6666 17.24 34.64C17.7733 33.9066 18.2533 33.1333 18.6667 32.32C18.6933 32.2666 18.6667 32.2133 18.6133 32.2C17.8533 31.9066 17.1333 31.56 16.4267 31.16C16.3733 31.1333 16.3733 31.0533 16.4133 31.0133C16.56 30.9066 16.7067 30.7866 16.8533 30.68C16.88 30.6533 16.92 30.6533 16.9467 30.6666C21.5333 32.76 26.48 32.76 31.0133 30.6666C31.04 30.6533 31.08 30.6533 31.1067 30.68C31.2533 30.8 31.4 30.9066 31.5467 31.0266C31.6 31.0666 31.6 31.1466 31.5333 31.1733C30.84 31.5866 30.1067 31.92 29.3467 32.2133C29.2933 32.2266 29.28 32.2933 29.2933 32.3333C29.72 33.1466 30.2 33.92 30.72 34.6533C30.76 34.6666 30.8 34.68 30.84 34.6666C33.1333 33.96 35.44 32.8933 37.84 31.1333C37.8667 31.12 37.88 31.0933 37.88 31.0666C38.4667 25.0266 36.9067 19.7866 33.7467 15.1333C33.7333 15.12 33.72 15.1066 33.6933 15.1066V15.1066ZM19.36 27.88C17.9867 27.88 16.84 26.6133 16.84 25.0533C16.84 23.4933 17.96 22.2266 19.36 22.2266C20.7733 22.2266 21.8933 23.5066 21.88 25.0533C21.88 26.6133 20.76 27.88 19.36 27.88ZM28.6533 27.88C27.28 27.88 26.1333 26.6133 26.1333 25.0533C26.1333 23.4933 27.2533 22.2266 28.6533 22.2266C30.0667 22.2266 31.1867 23.5066 31.1733 25.0533C31.1733 26.6133 30.0667 27.88 28.6533 27.88Z" fill="white"/>
</svg>
